<svg width="442" height="126" viewBox="0 0 442 126" fill="none" xmlns="http://www.w3.org/2000/svg">
<g filter="url(#filter0_dd_766_11433)">
<g clip-path="url(#clip0_766_11433)">
<rect x="10.2664" y="7.26637" width="105.467" height="105.467" rx="26.3668" fill="white"/>
<rect x="10.2664" y="7.26637" width="105.467" height="105.467" rx="26.3668" fill="url(#paint0_linear_766_11433)"/>
<circle opacity="0.5" cx="90.3589" cy="33.6324" r="25.3747" fill="url(#paint1_linear_766_11433)"/>
<circle opacity="0.5" cx="34.6489" cy="86.3668" r="26.3668" fill="url(#paint2_linear_766_11433)"/>
<g filter="url(#filter1_dd_766_11433)">
<path fill-rule="evenodd" clip-rule="evenodd" d="M55.0229 47.5302L40.8359 42.8463L27.3983 83.5471C27.391 83.5684 27.3838 83.5898 27.3768 83.6113C27.3697 83.6327 27.3627 83.6542 27.3558 83.6756L27.3393 83.7258L27.3399 83.726C26.125 87.611 28.2489 91.7659 32.1283 93.0468C36.0078 94.3276 40.188 92.254 41.5251 88.4093L41.5263 88.4097L55.0229 47.5302Z" fill="url(#paint3_linear_766_11433)"/>
</g>
<g filter="url(#filter2_dd_766_11433)">
<path d="M44.709 51.9861L51.0055 38.4856L81.5085 70.2082L75.0687 81.5813L44.709 51.9861Z" fill="url(#paint4_linear_766_11433)"/>
</g>
<g filter="url(#filter3_dd_766_11433)">
<path fill-rule="evenodd" clip-rule="evenodd" d="M98.6378 36.3471L84.4507 31.6632L71.0126 72.3655C71.0055 72.3864 70.9985 72.4072 70.9916 72.4282C70.9847 72.4491 70.9779 72.4701 70.9712 72.491L70.9541 72.5427L70.9548 72.5429C69.7399 76.4279 71.8637 80.5828 75.7432 81.8637C79.6226 83.1445 83.8029 81.0709 85.14 77.2262L85.1412 77.2266L98.6378 36.3471Z" fill="url(#paint5_linear_766_11433)"/>
</g>
<g filter="url(#filter4_dd_766_11433)">
<circle cx="91.5218" cy="34.0467" r="7.47013" transform="rotate(18.2709 91.5218 34.0467)" fill="url(#paint6_linear_766_11433)"/>
</g>
<g filter="url(#filter5_dd_766_11433)">
<circle cx="78.0846" cy="74.7712" r="2.99143" fill="url(#paint7_linear_766_11433)"/>
</g>
<g filter="url(#filter6_dd_766_11433)">
<circle cx="47.9375" cy="45.3147" r="7.47013" fill="url(#paint8_linear_766_11433)"/>
</g>
<g filter="url(#filter7_dd_766_11433)">
<circle cx="47.9376" cy="45.3149" r="2.99143" fill="url(#paint9_linear_766_11433)"/>
</g>
</g>
<rect x="10.5959" y="7.59595" width="104.808" height="104.808" rx="26.0372" stroke="url(#paint10_linear_766_11433)" stroke-width="0.659171"/>
</g>
<path d="M182.479 17.2909V53H177.527L159.376 26.811H159.045V53H153.657V17.2909H158.643L176.812 43.5148H177.143V17.2909H182.479ZM202.616 53.5405C199.977 53.5405 197.705 52.9768 195.798 51.8492C193.903 50.7101 192.439 49.1118 191.404 47.0543C190.381 44.9852 189.87 42.5616 189.87 39.7835C189.87 37.0402 190.381 34.6224 191.404 32.5301C192.439 30.4377 193.88 28.8046 195.728 27.6305C197.588 26.4565 199.762 25.8695 202.25 25.8695C203.761 25.8695 205.225 26.1194 206.643 26.6192C208.062 27.1191 209.334 27.9037 210.462 28.9731C211.589 30.0425 212.479 31.4316 213.13 33.1403C213.781 34.8374 214.106 36.9007 214.106 39.3301V41.1784H192.817V37.2727H208.997C208.997 35.901 208.718 34.6863 208.16 33.6285C207.602 32.5591 206.818 31.7164 205.806 31.1003C204.807 30.4842 203.633 30.1762 202.284 30.1762C200.82 30.1762 199.541 30.5365 198.448 31.2572C197.367 31.9663 196.53 32.8962 195.938 34.047C195.356 35.1862 195.066 36.4241 195.066 37.7609V40.8122C195.066 42.6023 195.38 44.1251 196.007 45.3805C196.647 46.6359 197.536 47.5948 198.675 48.2574C199.814 48.9084 201.145 49.2338 202.668 49.2338C203.656 49.2338 204.557 49.0943 205.371 48.8154C206.184 48.5248 206.888 48.0947 207.48 47.5251C208.073 46.9555 208.527 46.2523 208.84 45.4153L213.775 46.3046C213.38 47.7576 212.67 49.0304 211.648 50.1231C210.636 51.2041 209.363 52.0469 207.829 52.6513C206.306 53.2441 204.569 53.5405 202.616 53.5405ZM238.009 41.8932V26.2182H243.24V53H238.114V48.362H237.835C237.219 49.7918 236.231 50.9833 234.871 51.9364C233.522 52.878 231.843 53.3488 229.832 53.3488C228.111 53.3488 226.589 52.971 225.264 52.2154C223.95 51.4482 222.915 50.3149 222.16 48.8154C221.416 47.3159 221.044 45.4618 221.044 43.2533V26.2182H226.257V42.6256C226.257 44.4505 226.763 45.9035 227.774 46.9846C228.786 48.0656 230.099 48.6061 231.715 48.6061C232.691 48.6061 233.662 48.362 234.627 47.8738C235.603 47.3856 236.411 46.6475 237.05 45.6594C237.701 44.6714 238.021 43.416 238.009 41.8932ZM251.399 53V26.2182H256.438V30.4726H256.717C257.205 29.0312 258.065 27.8979 259.297 27.0726C260.541 26.2356 261.947 25.8172 263.517 25.8172C263.842 25.8172 264.226 25.8288 264.668 25.8521C265.121 25.8753 265.475 25.9044 265.731 25.9392V30.926C265.522 30.8678 265.15 30.8039 264.615 30.7342C264.08 30.6528 263.546 30.6121 263.011 30.6121C261.779 30.6121 260.68 30.8736 259.716 31.3967C258.762 31.9082 258.007 32.6231 257.449 33.5414C256.891 34.448 256.612 35.4826 256.612 36.645V53H251.399ZM278.95 53.5929C277.253 53.5929 275.719 53.279 274.347 52.6513C272.976 52.012 271.889 51.0879 271.087 49.879C270.296 48.6701 269.901 47.188 269.901 45.4328C269.901 43.9216 270.192 42.6779 270.773 41.7015C271.354 40.725 272.139 39.952 273.127 39.3825C274.115 38.8129 275.219 38.3828 276.44 38.0922C277.66 37.8016 278.904 37.5807 280.171 37.4296C281.775 37.2436 283.077 37.0925 284.077 36.9763C285.076 36.8484 285.803 36.645 286.256 36.366C286.709 36.087 286.936 35.6337 286.936 35.006V34.8839C286.936 33.3612 286.506 32.1814 285.646 31.3444C284.797 30.5075 283.53 30.089 281.845 30.089C280.09 30.089 278.706 30.4784 277.695 31.2572C276.695 32.0244 276.004 32.8788 275.62 33.8203L270.721 32.7044C271.302 31.0771 272.15 29.7635 273.266 28.7639C274.394 27.7526 275.69 27.0203 277.155 26.5669C278.619 26.102 280.159 25.8695 281.775 25.8695C282.844 25.8695 283.978 25.9974 285.175 26.2531C286.384 26.4972 287.512 26.9505 288.558 27.6131C289.615 28.2757 290.481 29.223 291.156 30.4552C291.83 31.6757 292.167 33.2624 292.167 35.2152V53H287.076V49.3385H286.866C286.529 50.0126 286.024 50.6752 285.349 51.3262C284.675 51.9771 283.809 52.5176 282.751 52.9477C281.694 53.3778 280.427 53.5929 278.95 53.5929ZM280.084 49.4082C281.525 49.4082 282.757 49.1234 283.78 48.5538C284.815 47.9843 285.599 47.2403 286.134 46.322C286.68 45.3921 286.954 44.3982 286.954 43.3404V39.8881C286.768 40.0741 286.407 40.2484 285.873 40.4112C285.349 40.5623 284.751 40.696 284.077 40.8122C283.402 40.9168 282.746 41.0156 282.106 41.1086C281.467 41.19 280.932 41.2597 280.502 41.3179C279.491 41.4457 278.567 41.6608 277.73 41.963C276.905 42.2652 276.242 42.7011 275.742 43.2707C275.254 43.8287 275.01 44.5726 275.01 45.5025C275.01 46.7928 275.486 47.7692 276.44 48.4318C277.393 49.0827 278.608 49.4082 280.084 49.4082ZM320.333 32.7567L315.608 33.5937C315.411 32.9892 315.097 32.4138 314.667 31.8675C314.248 31.3212 313.679 30.8736 312.958 30.5249C312.237 30.1762 311.336 30.0018 310.255 30.0018C308.779 30.0018 307.547 30.3331 306.559 30.9957C305.571 31.6466 305.077 32.4894 305.077 33.5239C305.077 34.419 305.408 35.1397 306.071 35.686C306.733 36.2323 307.803 36.6799 309.279 37.0286L313.533 38.005C315.998 38.5746 317.834 39.4522 319.043 40.6379C320.252 41.8235 320.856 43.3637 320.856 45.2584C320.856 46.8625 320.391 48.2923 319.462 49.5477C318.543 50.7915 317.259 51.7679 315.608 52.4769C313.969 53.186 312.069 53.5405 309.907 53.5405C306.908 53.5405 304.461 52.9012 302.566 51.6226C300.671 50.3323 299.509 48.5015 299.079 46.1302L304.118 45.363C304.432 46.6765 305.077 47.6704 306.053 48.3446C307.03 49.0072 308.302 49.3385 309.872 49.3385C311.58 49.3385 312.946 48.9839 313.969 48.2749C314.992 47.5542 315.504 46.6765 315.504 45.642C315.504 44.8051 315.19 44.1018 314.562 43.5322C313.946 42.9627 312.999 42.5326 311.72 42.242L307.187 41.2481C304.687 40.6785 302.839 39.7719 301.642 38.5281C300.456 37.2843 299.863 35.7093 299.863 33.8029C299.863 32.222 300.305 30.8388 301.189 29.6531C302.072 28.4675 303.292 27.5434 304.85 26.8808C306.408 26.2066 308.192 25.8695 310.203 25.8695C313.097 25.8695 315.376 26.4972 317.038 27.7526C318.7 28.9964 319.799 30.6644 320.333 32.7567ZM339.285 53.5405C336.646 53.5405 334.374 52.9768 332.467 51.8492C330.573 50.7101 329.108 49.1118 328.073 47.0543C327.05 44.9852 326.539 42.5616 326.539 39.7835C326.539 37.0402 327.05 34.6224 328.073 32.5301C329.108 30.4377 330.549 28.8046 332.398 27.6305C334.257 26.4565 336.431 25.8695 338.919 25.8695C340.43 25.8695 341.894 26.1194 343.313 26.6192C344.731 27.1191 346.003 27.9037 347.131 28.9731C348.259 30.0425 349.148 31.4316 349.799 33.1403C350.45 34.8374 350.775 36.9007 350.775 39.3301V41.1784H329.486V37.2727H345.666C345.666 35.901 345.387 34.6863 344.829 33.6285C344.272 32.5591 343.487 31.7164 342.476 31.1003C341.476 30.4842 340.302 30.1762 338.954 30.1762C337.489 30.1762 336.21 30.5365 335.118 31.2572C334.037 31.9663 333.2 32.8962 332.607 34.047C332.026 35.1862 331.735 36.4241 331.735 37.7609V40.8122C331.735 42.6023 332.049 44.1251 332.677 45.3805C333.316 46.6359 334.205 47.5948 335.344 48.2574C336.483 48.9084 337.814 49.2338 339.337 49.2338C340.325 49.2338 341.226 49.0943 342.04 48.8154C342.853 48.5248 343.557 48.0947 344.149 47.5251C344.742 46.9555 345.196 46.2523 345.509 45.4153L350.444 46.3046C350.049 47.7576 349.34 49.0304 348.317 50.1231C347.305 51.2041 346.033 52.0469 344.498 52.6513C342.975 53.2441 341.238 53.5405 339.285 53.5405ZM362.927 37.0983V53H357.713V26.2182H362.717V30.5772H363.049C363.665 29.1591 364.629 28.0199 365.943 27.1598C367.268 26.2996 368.936 25.8695 370.947 25.8695C372.772 25.8695 374.37 26.2531 375.742 27.0203C377.114 27.7758 378.177 28.9034 378.933 30.4029C379.688 31.9024 380.066 33.7564 380.066 35.965V53H374.853V36.5927C374.853 34.6515 374.347 33.1345 373.336 32.0419C372.325 30.9376 370.935 30.3854 369.169 30.3854C367.96 30.3854 366.885 30.647 365.943 31.1701C365.013 31.6931 364.275 32.4603 363.729 33.4716C363.194 34.4713 362.927 35.6802 362.927 37.0983ZM408.281 32.7567L403.555 33.5937C403.358 32.9892 403.044 32.4138 402.614 31.8675C402.195 31.3212 401.626 30.8736 400.905 30.5249C400.184 30.1762 399.284 30.0018 398.202 30.0018C396.726 30.0018 395.494 30.3331 394.506 30.9957C393.518 31.6466 393.024 32.4894 393.024 33.5239C393.024 34.419 393.355 35.1397 394.018 35.686C394.68 36.2323 395.75 36.6799 397.226 37.0286L401.48 38.005C403.945 38.5746 405.781 39.4522 406.99 40.6379C408.199 41.8235 408.804 43.3637 408.804 45.2584C408.804 46.8625 408.339 48.2923 407.409 49.5477C406.49 50.7915 405.206 51.7679 403.555 52.4769C401.916 53.186 400.016 53.5405 397.854 53.5405C394.855 53.5405 392.408 52.9012 390.513 51.6226C388.618 50.3323 387.456 48.5015 387.026 46.1302L392.065 45.363C392.379 46.6765 393.024 47.6704 394 48.3446C394.977 49.0072 396.25 49.3385 397.819 49.3385C399.528 49.3385 400.893 48.9839 401.916 48.2749C402.939 47.5542 403.451 46.6765 403.451 45.642C403.451 44.8051 403.137 44.1018 402.509 43.5322C401.893 42.9627 400.946 42.5326 399.667 42.242L395.134 41.2481C392.635 40.6785 390.786 39.7719 389.589 38.5281C388.403 37.2843 387.811 35.7093 387.811 33.8029C387.811 32.222 388.252 30.8388 389.136 29.6531C390.019 28.4675 391.24 27.5434 392.797 26.8808C394.355 26.2066 396.139 25.8695 398.15 25.8695C401.045 25.8695 403.323 26.4972 404.985 27.7526C406.647 28.9964 407.746 30.6644 408.281 32.7567ZM427.232 53.5405C424.593 53.5405 422.321 52.9768 420.414 51.8492C418.52 50.7101 417.055 49.1118 416.021 47.0543C414.998 44.9852 414.486 42.5616 414.486 39.7835C414.486 37.0402 414.998 34.6224 416.021 32.5301C417.055 30.4377 418.496 28.8046 420.345 27.6305C422.205 26.4565 424.378 25.8695 426.866 25.8695C428.377 25.8695 429.842 26.1194 431.26 26.6192C432.678 27.1191 433.951 27.9037 435.078 28.9731C436.206 30.0425 437.095 31.4316 437.746 33.1403C438.397 34.8374 438.722 36.9007 438.722 39.3301V41.1784H417.433V37.2727H433.614C433.614 35.901 433.335 34.6863 432.777 33.6285C432.219 32.5591 431.434 31.7164 430.423 31.1003C429.423 30.4842 428.249 30.1762 426.901 30.1762C425.436 30.1762 424.157 30.5365 423.065 31.2572C421.984 31.9663 421.147 32.8962 420.554 34.047C419.973 35.1862 419.682 36.4241 419.682 37.7609V40.8122C419.682 42.6023 419.996 44.1251 420.624 45.3805C421.263 46.6359 422.152 47.5948 423.291 48.2574C424.431 48.9084 425.762 49.2338 427.284 49.2338C428.272 49.2338 429.173 49.0943 429.987 48.8154C430.801 48.5248 431.504 48.0947 432.097 47.5251C432.689 46.9555 433.143 46.2523 433.457 45.4153L438.391 46.3046C437.996 47.7576 437.287 49.0304 436.264 50.1231C435.253 51.2041 433.98 52.0469 432.445 52.6513C430.923 53.2441 429.185 53.5405 427.232 53.5405Z" fill="#033A5E"/>
<path d="M151.183 83V72.0909H157.511V72.9858H152.179V77.0927H157.175V77.9876H152.179V82.1051H157.617V83H151.183ZM159.892 83V74.8182H160.813V76.0753H160.898C161.062 75.6527 161.333 75.3207 161.713 75.0792C162.097 74.8342 162.557 74.7117 163.093 74.7117C163.658 74.7117 164.121 74.8448 164.483 75.1112C164.849 75.374 165.122 75.7362 165.304 76.1978H165.373C165.558 75.7433 165.858 75.3828 166.273 75.1165C166.692 74.8466 167.2 74.7117 167.796 74.7117C168.556 74.7117 169.157 74.9514 169.597 75.4308C170.037 75.9066 170.257 76.6027 170.257 77.5189V83H169.309V77.5189C169.309 76.8725 169.144 76.3878 168.814 76.0647C168.484 75.7415 168.049 75.5799 167.509 75.5799C166.884 75.5799 166.403 75.7717 166.065 76.1552C165.728 76.5387 165.559 77.0252 165.559 77.6147V83H164.59V77.4336C164.59 76.8796 164.435 76.4322 164.126 76.0913C163.817 75.7504 163.382 75.5799 162.821 75.5799C162.445 75.5799 162.106 75.6723 161.804 75.8569C161.506 76.0416 161.27 76.299 161.096 76.6293C160.925 76.956 160.84 77.3324 160.84 77.7586V83H159.892ZM172.768 86.0682V74.8182H173.689V76.3789H173.801C173.915 76.1339 174.071 75.8836 174.27 75.6279C174.469 75.3686 174.731 75.1502 175.058 74.9727C175.388 74.7951 175.804 74.7064 176.305 74.7064C176.979 74.7064 177.569 74.8839 178.073 75.239C178.581 75.5906 178.975 76.0842 179.256 76.7198C179.54 77.3519 179.682 78.0888 179.682 78.9304C179.682 79.7756 179.54 80.516 179.256 81.1517C178.975 81.7873 178.581 82.2827 178.073 82.6378C177.569 82.9929 176.983 83.1705 176.315 83.1705C175.822 83.1705 175.408 83.0817 175.074 82.9041C174.744 82.7266 174.476 82.5082 174.27 82.249C174.067 81.9862 173.911 81.7305 173.801 81.4819H173.716V86.0682H172.768ZM173.705 78.9144C173.705 79.575 173.803 80.1609 173.998 80.6723C174.197 81.1801 174.481 81.5796 174.85 81.8708C175.223 82.1584 175.674 82.3022 176.203 82.3022C176.747 82.3022 177.205 82.1531 177.578 81.8548C177.954 81.5529 178.24 81.1463 178.435 80.635C178.634 80.1236 178.734 79.5501 178.734 78.9144C178.734 78.2859 178.636 77.7195 178.441 77.2152C178.249 76.711 177.965 76.3115 177.588 76.0167C177.212 75.7184 176.75 75.5693 176.203 75.5693C175.671 75.5693 175.218 75.7131 174.845 76.0007C174.472 76.2848 174.188 76.679 173.993 77.1833C173.801 77.684 173.705 78.261 173.705 78.9144ZM184.942 83.1705C184.235 83.1705 183.61 82.9912 183.067 82.6325C182.527 82.2738 182.104 81.7784 181.799 81.1463C181.494 80.5107 181.341 79.7774 181.341 78.9464C181.341 78.1083 181.494 77.3715 181.799 76.7358C182.104 76.0966 182.527 75.5995 183.067 75.2443C183.61 74.8857 184.235 74.7064 184.942 74.7064C185.649 74.7064 186.272 74.8857 186.812 75.2443C187.351 75.603 187.774 76.1002 188.079 76.7358C188.388 77.3715 188.543 78.1083 188.543 78.9464C188.543 79.7774 188.39 80.5107 188.085 81.1463C187.779 81.7784 187.355 82.2738 186.812 82.6325C186.272 82.9912 185.649 83.1705 184.942 83.1705ZM184.942 82.3022C185.51 82.3022 185.991 82.1495 186.385 81.8441C186.78 81.5387 187.078 81.1321 187.28 80.6243C187.486 80.1165 187.589 79.5572 187.589 78.9464C187.589 78.3356 187.486 77.7745 187.28 77.2632C187.078 76.7518 186.78 76.3416 186.385 76.0327C185.991 75.7238 185.51 75.5693 184.942 75.5693C184.377 75.5693 183.896 75.7238 183.498 76.0327C183.104 76.3416 182.804 76.7518 182.598 77.2632C182.396 77.7745 182.294 78.3356 182.294 78.9464C182.294 79.5572 182.396 80.1165 182.598 80.6243C182.804 81.1321 183.104 81.5387 183.498 81.8441C183.892 82.1495 184.374 82.3022 184.942 82.3022ZM192.162 83L189.691 74.8182H190.692L192.631 81.5671H192.7L194.634 74.8182H195.641L197.558 81.5512H197.633L199.572 74.8182H200.573L198.101 83H197.121L195.182 76.2937H195.081L193.142 83H192.162ZM205.446 83.1705C204.682 83.1705 204.022 82.9929 203.464 82.6378C202.907 82.2791 202.475 81.7838 202.17 81.1517C201.868 80.516 201.717 79.7845 201.717 78.9571C201.717 78.1332 201.868 77.4017 202.17 76.7625C202.475 76.1197 202.896 75.6172 203.432 75.255C203.972 74.8892 204.595 74.7064 205.302 74.7064C205.746 74.7064 206.174 74.788 206.586 74.9514C206.997 75.1112 207.367 75.358 207.694 75.6918C208.024 76.022 208.285 76.4393 208.477 76.9436C208.668 77.4443 208.764 78.0373 208.764 78.7227V79.1914H202.372V78.3551H207.795C207.795 77.8296 207.688 77.3573 207.475 76.9382C207.266 76.5157 206.973 76.1818 206.596 75.9368C206.223 75.6918 205.792 75.5693 205.302 75.5693C204.783 75.5693 204.327 75.7078 203.933 75.9848C203.539 76.2617 203.23 76.6275 203.006 77.0821C202.786 77.5366 202.674 78.0338 202.67 78.5735V79.0742C202.67 79.7241 202.782 80.2923 203.006 80.7788C203.233 81.2617 203.555 81.6364 203.97 81.9027C204.386 82.1691 204.877 82.3022 205.446 82.3022C205.833 82.3022 206.172 82.2419 206.463 82.1211C206.758 82.0004 207.005 81.8388 207.203 81.6364C207.406 81.4304 207.559 81.2049 207.662 80.9599L208.562 81.2529C208.437 81.5973 208.233 81.9152 207.949 82.2064C207.669 82.4975 207.317 82.7319 206.895 82.9095C206.475 83.0835 205.993 83.1705 205.446 83.1705ZM210.854 83V74.8182H211.775V76.0753H211.844C212.008 75.6634 212.292 75.3314 212.697 75.0792C213.105 74.8235 213.567 74.6957 214.082 74.6957C214.16 74.6957 214.247 74.6975 214.343 74.701C214.438 74.7046 214.518 74.7081 214.582 74.7117V75.6758C214.54 75.6687 214.465 75.6581 214.359 75.6439C214.252 75.6296 214.137 75.6225 214.012 75.6225C213.586 75.6225 213.206 75.7131 212.872 75.8942C212.542 76.0718 212.281 76.3186 212.089 76.6346C211.898 76.9507 211.802 77.3111 211.802 77.7159V83H210.854ZM216.211 83V74.8182H217.164V83H216.211ZM216.696 73.412C216.5 73.412 216.333 73.3463 216.195 73.2149C216.056 73.0799 215.987 72.9184 215.987 72.7301C215.987 72.5419 216.056 72.3821 216.195 72.2507C216.333 72.1158 216.5 72.0483 216.696 72.0483C216.891 72.0483 217.058 72.1158 217.196 72.2507C217.335 72.3821 217.404 72.5419 217.404 72.7301C217.404 72.9184 217.335 73.0799 217.196 73.2149C217.058 73.3463 216.891 73.412 216.696 73.412ZM220.62 77.8864V83H219.672V74.8182H220.593V76.1019H220.679C220.87 75.6829 221.169 75.3473 221.574 75.0952C221.982 74.8395 222.486 74.7117 223.086 74.7117C223.637 74.7117 224.12 74.8271 224.535 75.0579C224.954 75.2852 225.279 75.6208 225.51 76.0647C225.744 76.5086 225.862 77.0537 225.862 77.7V83H224.913V77.7586C224.913 77.0874 224.725 76.5565 224.349 76.1659C223.976 75.7752 223.475 75.5799 222.847 75.5799C222.417 75.5799 222.035 75.6723 221.701 75.8569C221.368 76.0416 221.103 76.3079 220.908 76.6559C220.716 77.0004 220.62 77.4105 220.62 77.8864ZM231.48 86.2387C230.922 86.2387 230.434 86.1659 230.015 86.0203C229.596 85.8782 229.243 85.6829 228.955 85.4343C228.667 85.1858 228.444 84.907 228.284 84.598L229.062 84.0867C229.179 84.2926 229.335 84.4951 229.53 84.6939C229.729 84.8928 229.987 85.0579 230.303 85.1893C230.622 85.3207 231.015 85.3864 231.48 85.3864C232.204 85.3864 232.789 85.2053 233.232 84.8431C233.68 84.4809 233.904 83.918 233.904 83.1545V81.3115H233.818C233.708 81.56 233.55 81.8086 233.344 82.0572C233.138 82.3022 232.868 82.5064 232.535 82.6698C232.204 82.8331 231.794 82.9148 231.304 82.9148C230.651 82.9148 230.07 82.7532 229.562 82.4301C229.058 82.1069 228.66 81.6453 228.369 81.0451C228.081 80.4414 227.938 79.7223 227.938 78.8878C227.938 78.0604 228.078 77.3324 228.358 76.7039C228.643 76.0753 229.039 75.5853 229.546 75.2337C230.054 74.8821 230.645 74.7064 231.32 74.7064C231.821 74.7064 232.236 74.7951 232.567 74.9727C232.897 75.1467 233.161 75.3633 233.36 75.6225C233.563 75.8818 233.721 76.1339 233.834 76.3789H233.93V74.8182H234.857V83.2131C234.857 83.9056 234.71 84.4755 234.415 84.923C234.12 85.3704 233.719 85.7007 233.211 85.9137C232.703 86.1304 232.126 86.2387 231.48 86.2387ZM231.416 82.0466C231.942 82.0466 232.391 81.9205 232.764 81.6684C233.137 81.4127 233.422 81.0469 233.621 80.5711C233.82 80.0952 233.92 79.5288 233.92 78.8718C233.92 78.2326 233.822 77.6662 233.627 77.1726C233.431 76.6755 233.147 76.2848 232.774 76.0007C232.405 75.7131 231.952 75.5693 231.416 75.5693C230.869 75.5693 230.407 75.7166 230.031 76.0114C229.655 76.3061 229.371 76.7039 229.179 77.2046C228.987 77.7017 228.891 78.2575 228.891 78.8718C228.891 79.4968 228.989 80.049 229.184 80.5284C229.379 81.0043 229.665 81.3772 230.042 81.647C230.418 81.9134 230.876 82.0466 231.416 82.0466ZM240.76 72.0909H241.911L245.144 77.2685H245.24L248.473 72.0909H249.624L245.688 78.2752V83H244.697V78.2752L240.76 72.0909ZM253.321 83.1705C252.614 83.1705 251.989 82.9912 251.446 82.6325C250.906 82.2738 250.483 81.7784 250.178 81.1463C249.873 80.5107 249.72 79.7774 249.72 78.9464C249.72 78.1083 249.873 77.3715 250.178 76.7358C250.483 76.0966 250.906 75.5995 251.446 75.2443C251.989 74.8857 252.614 74.7064 253.321 74.7064C254.027 74.7064 254.651 74.8857 255.19 75.2443C255.73 75.603 256.153 76.1002 256.458 76.7358C256.767 77.3715 256.922 78.1083 256.922 78.9464C256.922 79.7774 256.769 80.5107 256.463 81.1463C256.158 81.7784 255.734 82.2738 255.19 82.6325C254.651 82.9912 254.027 83.1705 253.321 83.1705ZM253.321 82.3022C253.889 82.3022 254.37 82.1495 254.764 81.8441C255.158 81.5387 255.457 81.1321 255.659 80.6243C255.865 80.1165 255.968 79.5572 255.968 78.9464C255.968 78.3356 255.865 77.7745 255.659 77.2632C255.457 76.7518 255.158 76.3416 254.764 76.0327C254.37 75.7238 253.889 75.5693 253.321 75.5693C252.756 75.5693 252.275 75.7238 251.877 76.0327C251.483 76.3416 251.183 76.7518 250.977 77.2632C250.775 77.7745 250.673 78.3356 250.673 78.9464C250.673 79.5572 250.775 80.1165 250.977 80.6243C251.183 81.1321 251.483 81.5387 251.877 81.8441C252.271 82.1495 252.753 82.3022 253.321 82.3022ZM264.202 79.8733V74.8182H265.15V83H264.202V81.6417H264.127C263.936 82.0608 263.632 82.4105 263.216 82.6911C262.801 82.9681 262.293 83.1066 261.693 83.1066C261.171 83.1066 260.708 82.9929 260.303 82.7657C259.898 82.5348 259.58 82.1975 259.349 81.7536C259.118 81.3097 259.003 80.7646 259.003 80.1183V74.8182H259.951V80.0597C259.951 80.6989 260.139 81.2138 260.516 81.6044C260.892 81.9915 261.375 82.185 261.965 82.185C262.334 82.185 262.689 82.0963 263.03 81.9187C263.371 81.7412 263.651 81.4819 263.872 81.141C264.092 80.7966 264.202 80.374 264.202 79.8733ZM267.66 83V74.8182H268.582V76.0753H268.651C268.814 75.6634 269.098 75.3314 269.503 75.0792C269.912 74.8235 270.373 74.6957 270.888 74.6957C270.966 74.6957 271.053 74.6975 271.149 74.701C271.245 74.7046 271.325 74.7081 271.389 74.7117V75.6758C271.346 75.6687 271.272 75.6581 271.165 75.6439C271.059 75.6296 270.943 75.6225 270.819 75.6225C270.393 75.6225 270.013 75.7131 269.679 75.8942C269.349 76.0718 269.088 76.3186 268.896 76.6346C268.704 76.9507 268.608 77.3111 268.608 77.7159V83H267.66ZM277.423 83V72.0909H283.735V72.9858H278.419V77.0927H283.24V77.9876H278.419V83H277.423ZM290.701 79.8733V74.8182H291.649V83H290.701V81.6417H290.626C290.435 82.0608 290.131 82.4105 289.715 82.6911C289.3 82.9681 288.792 83.1066 288.192 83.1066C287.67 83.1066 287.207 82.9929 286.802 82.7657C286.397 82.5348 286.079 82.1975 285.848 81.7536C285.617 81.3097 285.502 80.7646 285.502 80.1183V74.8182H286.45V80.0597C286.45 80.6989 286.638 81.2138 287.015 81.6044C287.391 81.9915 287.874 82.185 288.464 82.185C288.833 82.185 289.188 82.0963 289.529 81.9187C289.87 81.7412 290.15 81.4819 290.371 81.141C290.591 80.7966 290.701 80.374 290.701 79.8733ZM297.382 74.8182V75.6439H293.477V74.8182H297.382ZM294.697 72.858H295.651V80.864C295.651 81.2049 295.709 81.473 295.827 81.6684C295.944 81.8601 296.096 81.9968 296.285 82.0785C296.473 82.1566 296.673 82.1957 296.887 82.1957C297.011 82.1957 297.117 82.1886 297.206 82.1744C297.295 82.1566 297.373 82.1389 297.44 82.1211L297.643 82.9787C297.551 83.0142 297.437 83.0462 297.302 83.0746C297.167 83.1066 297 83.1225 296.801 83.1225C296.453 83.1225 296.118 83.0462 295.795 82.8935C295.475 82.7408 295.212 82.5135 295.006 82.2117C294.8 81.9098 294.697 81.5352 294.697 81.0877V72.858ZM304.734 79.8733V74.8182H305.682V83H304.734V81.6417H304.66C304.468 82.0608 304.164 82.4105 303.749 82.6911C303.333 82.9681 302.825 83.1066 302.225 83.1066C301.703 83.1066 301.24 82.9929 300.835 82.7657C300.43 82.5348 300.112 82.1975 299.881 81.7536C299.651 81.3097 299.535 80.7646 299.535 80.1183V74.8182H300.483V80.0597C300.483 80.6989 300.672 81.2138 301.048 81.6044C301.424 81.9915 301.907 82.185 302.497 82.185C302.866 82.185 303.221 82.0963 303.562 81.9187C303.903 81.7412 304.184 81.4819 304.404 81.141C304.624 80.7966 304.734 80.374 304.734 79.8733ZM308.192 83V74.8182H309.114V76.0753H309.183C309.347 75.6634 309.631 75.3314 310.035 75.0792C310.444 74.8235 310.906 74.6957 311.42 74.6957C311.499 74.6957 311.586 74.6975 311.681 74.701C311.777 74.7046 311.857 74.7081 311.921 74.7117V75.6758C311.879 75.6687 311.804 75.6581 311.697 75.6439C311.591 75.6296 311.475 75.6225 311.351 75.6225C310.925 75.6225 310.545 75.7131 310.211 75.8942C309.881 76.0718 309.62 76.3186 309.428 76.6346C309.236 76.9507 309.141 77.3111 309.141 77.7159V83H308.192ZM316.598 83.1705C315.834 83.1705 315.174 82.9929 314.616 82.6378C314.059 82.2791 313.627 81.7838 313.322 81.1517C313.02 80.516 312.869 79.7845 312.869 78.9571C312.869 78.1332 313.02 77.4017 313.322 76.7625C313.627 76.1197 314.048 75.6172 314.584 75.255C315.124 74.8892 315.747 74.7064 316.454 74.7064C316.898 74.7064 317.326 74.788 317.738 74.9514C318.15 75.1112 318.519 75.358 318.846 75.6918C319.176 76.022 319.437 76.4393 319.629 76.9436C319.821 77.4443 319.917 78.0373 319.917 78.7227V79.1914H313.524V78.3551H318.947C318.947 77.8296 318.841 77.3573 318.627 76.9382C318.418 76.5157 318.125 76.1818 317.749 75.9368C317.376 75.6918 316.944 75.5693 316.454 75.5693C315.936 75.5693 315.479 75.7078 315.085 75.9848C314.691 76.2617 314.382 76.6275 314.158 77.0821C313.938 77.5366 313.826 78.0338 313.823 78.5735V79.0742C313.823 79.7241 313.935 80.2923 314.158 80.7788C314.386 81.2617 314.707 81.6364 315.122 81.9027C315.538 82.1691 316.03 82.3022 316.598 82.3022C316.985 82.3022 317.324 82.2419 317.615 82.1211C317.91 82.0004 318.157 81.8388 318.356 81.6364C318.558 81.4304 318.711 81.2049 318.814 80.9599L319.714 81.2529C319.59 81.5973 319.386 81.9152 319.102 82.2064C318.821 82.4975 318.469 82.7319 318.047 82.9095C317.628 83.0835 317.145 83.1705 316.598 83.1705ZM328.041 83L325.569 74.8182H326.571L328.51 81.5671H328.579L330.513 74.8182H331.519L333.437 81.5512H333.512L335.451 74.8182H336.452L333.98 83H333L331.061 76.2937H330.96L329.021 83H328.041ZM338.306 83V74.8182H339.259V83H338.306ZM338.79 73.412C338.595 73.412 338.428 73.3463 338.29 73.2149C338.151 73.0799 338.082 72.9184 338.082 72.7301C338.082 72.5419 338.151 72.3821 338.29 72.2507C338.428 72.1158 338.595 72.0483 338.79 72.0483C338.986 72.0483 339.153 72.1158 339.291 72.2507C339.43 72.3821 339.499 72.5419 339.499 72.7301C339.499 72.9184 339.43 73.0799 339.291 73.2149C339.153 73.3463 338.986 73.412 338.79 73.412ZM344.989 74.8182V75.6439H341.085V74.8182H344.989ZM342.305 72.858H343.258V80.864C343.258 81.2049 343.317 81.473 343.434 81.6684C343.551 81.8601 343.704 81.9968 343.892 82.0785C344.08 82.1566 344.281 82.1957 344.494 82.1957C344.618 82.1957 344.725 82.1886 344.814 82.1744C344.902 82.1566 344.98 82.1389 345.048 82.1211L345.25 82.9787C345.158 83.0142 345.044 83.0462 344.909 83.0746C344.774 83.1066 344.608 83.1225 344.409 83.1225C344.061 83.1225 343.725 83.0462 343.402 82.8935C343.082 82.7408 342.82 82.5135 342.614 82.2117C342.408 81.9098 342.305 81.5352 342.305 81.0877V72.858ZM348.267 77.8864V83H347.318V72.0909H348.267V76.1019H348.352C348.544 75.6794 348.84 75.342 349.241 75.0899C349.646 74.8377 350.158 74.7117 350.775 74.7117C351.329 74.7117 351.816 74.8253 352.235 75.0526C352.654 75.2799 352.981 75.6154 353.215 76.0593C353.449 76.5032 353.567 77.0501 353.567 77.7V83H352.613V77.7586C352.613 77.0838 352.425 76.5529 352.049 76.1659C351.676 75.7752 351.171 75.5799 350.536 75.5799C350.099 75.5799 349.71 75.6723 349.369 75.8569C349.028 76.0416 348.758 76.3079 348.56 76.6559C348.364 77.0004 348.267 77.4105 348.267 77.8864ZM150.522 96.9858V96.0909H158.432V96.9858H154.975V107H153.979V96.9858H150.522ZM161.649 107.186C161.156 107.186 160.705 107.091 160.296 106.899C159.888 106.704 159.563 106.423 159.322 106.057C159.08 105.688 158.959 105.24 158.959 104.715C158.959 104.31 159.036 103.969 159.189 103.692C159.341 103.415 159.558 103.188 159.838 103.01C160.119 102.833 160.451 102.693 160.834 102.59C161.218 102.487 161.641 102.407 162.102 102.35C162.56 102.293 162.947 102.243 163.263 102.201C163.583 102.158 163.826 102.091 163.993 101.998C164.16 101.906 164.244 101.757 164.244 101.551V101.359C164.244 100.802 164.077 100.363 163.743 100.043C163.413 99.7202 162.937 99.5586 162.315 99.5586C161.726 99.5586 161.245 99.6882 160.872 99.9475C160.502 100.207 160.243 100.512 160.094 100.864L159.194 100.539C159.379 100.091 159.634 99.7344 159.961 99.4681C160.288 99.1982 160.653 99.0046 161.058 98.8875C161.463 98.7667 161.873 98.7064 162.289 98.7064C162.601 98.7064 162.926 98.7472 163.263 98.8289C163.604 98.9105 163.92 99.0526 164.212 99.255C164.503 99.4539 164.739 99.7326 164.92 100.091C165.101 100.446 165.192 100.897 165.192 101.444V107H164.244V105.706H164.185C164.071 105.947 163.903 106.181 163.679 106.409C163.455 106.636 163.175 106.822 162.837 106.968C162.5 107.114 162.104 107.186 161.649 107.186ZM161.777 106.318C162.282 106.318 162.718 106.206 163.088 105.983C163.457 105.759 163.741 105.462 163.94 105.093C164.142 104.72 164.244 104.31 164.244 103.863V102.68C164.173 102.748 164.054 102.808 163.887 102.861C163.723 102.914 163.533 102.962 163.317 103.005C163.104 103.044 162.891 103.078 162.678 103.106C162.464 103.135 162.273 103.159 162.102 103.181C161.641 103.238 161.246 103.326 160.92 103.447C160.593 103.568 160.343 103.735 160.169 103.948C159.995 104.157 159.908 104.427 159.908 104.757C159.908 105.255 160.085 105.64 160.44 105.913C160.795 106.183 161.241 106.318 161.777 106.318ZM167.725 107V98.8182H168.678V107H167.725ZM168.209 97.412C168.014 97.412 167.847 97.3463 167.709 97.2149C167.57 97.0799 167.501 96.9184 167.501 96.7301C167.501 96.5419 167.57 96.3821 167.709 96.2507C167.847 96.1158 168.014 96.0483 168.209 96.0483C168.405 96.0483 168.572 96.1158 168.71 96.2507C168.849 96.3821 168.918 96.5419 168.918 96.7301C168.918 96.9184 168.849 97.0799 168.71 97.2149C168.572 97.3463 168.405 97.412 168.209 97.412ZM172.134 96.0909V107H171.186V96.0909H172.134ZM177.823 107.17C177.116 107.17 176.491 106.991 175.948 106.632C175.408 106.274 174.985 105.778 174.68 105.146C174.375 104.511 174.222 103.777 174.222 102.946C174.222 102.108 174.375 101.371 174.68 100.736C174.985 100.097 175.408 99.5995 175.948 99.2443C176.491 98.8857 177.116 98.7064 177.823 98.7064C178.529 98.7064 179.153 98.8857 179.692 99.2443C180.232 99.603 180.655 100.1 180.96 100.736C181.269 101.371 181.424 102.108 181.424 102.946C181.424 103.777 181.271 104.511 180.965 105.146C180.66 105.778 180.236 106.274 179.692 106.632C179.153 106.991 178.529 107.17 177.823 107.17ZM177.823 106.302C178.391 106.302 178.872 106.15 179.266 105.844C179.66 105.539 179.959 105.132 180.161 104.624C180.367 104.117 180.47 103.557 180.47 102.946C180.47 102.336 180.367 101.775 180.161 101.263C179.959 100.752 179.66 100.342 179.266 100.033C178.872 99.7238 178.391 99.5693 177.823 99.5693C177.258 99.5693 176.777 99.7238 176.379 100.033C175.985 100.342 175.685 100.752 175.479 101.263C175.277 101.775 175.175 102.336 175.175 102.946C175.175 103.557 175.277 104.117 175.479 104.624C175.685 105.132 175.985 105.539 176.379 105.844C176.773 106.15 177.255 106.302 177.823 106.302ZM183.505 107V98.8182H184.426V100.075H184.496C184.659 99.6634 184.943 99.3314 185.348 99.0792C185.756 98.8235 186.218 98.6957 186.733 98.6957C186.811 98.6957 186.898 98.6975 186.994 98.701C187.09 98.7046 187.17 98.7081 187.234 98.7117V99.6758C187.191 99.6687 187.116 99.6581 187.01 99.6439C186.903 99.6296 186.788 99.6225 186.664 99.6225C186.238 99.6225 185.858 99.7131 185.524 99.8942C185.194 100.072 184.933 100.319 184.741 100.635C184.549 100.951 184.453 101.311 184.453 101.716V107H183.505ZM191.91 107.17C191.147 107.17 190.486 106.993 189.929 106.638C189.371 106.279 188.94 105.784 188.635 105.152C188.333 104.516 188.182 103.784 188.182 102.957C188.182 102.133 188.333 101.402 188.635 100.762C188.94 100.12 189.361 99.6172 189.897 99.255C190.437 98.8892 191.06 98.7064 191.767 98.7064C192.211 98.7064 192.638 98.788 193.05 98.9514C193.462 99.1112 193.832 99.358 194.158 99.6918C194.489 100.022 194.75 100.439 194.941 100.944C195.133 101.444 195.229 102.037 195.229 102.723V103.191H188.837V102.355H194.26C194.26 101.83 194.153 101.357 193.94 100.938C193.73 100.516 193.437 100.182 193.061 99.9368C192.688 99.6918 192.257 99.5693 191.767 99.5693C191.248 99.5693 190.792 99.7078 190.398 99.9848C190.004 100.262 189.695 100.628 189.471 101.082C189.251 101.537 189.139 102.034 189.135 102.574V103.074C189.135 103.724 189.247 104.292 189.471 104.779C189.698 105.262 190.02 105.636 190.435 105.903C190.85 106.169 191.342 106.302 191.91 106.302C192.298 106.302 192.637 106.242 192.928 106.121C193.223 106 193.469 105.839 193.668 105.636C193.871 105.43 194.023 105.205 194.126 104.96L195.027 105.253C194.902 105.597 194.698 105.915 194.414 106.206C194.134 106.498 193.782 106.732 193.359 106.909C192.94 107.083 192.457 107.17 191.91 107.17ZM200.264 107.17C199.593 107.17 199.005 106.993 198.501 106.638C197.997 106.283 197.603 105.787 197.318 105.152C197.038 104.516 196.898 103.776 196.898 102.93C196.898 102.089 197.038 101.352 197.318 100.72C197.603 100.084 197.998 99.5906 198.506 99.239C199.014 98.8839 199.605 98.7064 200.28 98.7064C200.777 98.7064 201.191 98.7951 201.521 98.9727C201.851 99.1467 202.116 99.3633 202.315 99.6225C202.514 99.8818 202.668 100.134 202.778 100.379H202.864V96.0909H203.817V107H202.89V105.482H202.778C202.668 105.73 202.512 105.986 202.31 106.249C202.107 106.508 201.839 106.727 201.505 106.904C201.175 107.082 200.761 107.17 200.264 107.17ZM200.376 106.302C200.905 106.302 201.356 106.158 201.729 105.871C202.102 105.58 202.386 105.18 202.581 104.672C202.78 104.161 202.88 103.575 202.88 102.914C202.88 102.261 202.782 101.684 202.587 101.183C202.391 100.679 202.107 100.285 201.734 100.001C201.361 99.7131 200.909 99.5693 200.376 99.5693C199.829 99.5693 199.367 99.7184 198.991 100.017C198.618 100.311 198.334 100.711 198.139 101.215C197.947 101.719 197.851 102.286 197.851 102.914C197.851 103.55 197.949 104.124 198.144 104.635C198.339 105.146 198.623 105.553 198.996 105.855C199.373 106.153 199.833 106.302 200.376 106.302ZM210.949 107H209.905L213.874 96.0909H214.939L218.908 107H217.864L214.444 97.3853H214.369L210.949 107ZM211.701 102.819H217.112V103.713H211.701V102.819ZM220.679 107V98.8182H221.632V107H220.679ZM221.163 97.412C220.968 97.412 220.801 97.3463 220.663 97.2149C220.524 97.0799 220.455 96.9184 220.455 96.7301C220.455 96.5419 220.524 96.3821 220.663 96.2507C220.801 96.1158 220.968 96.0483 221.163 96.0483C221.359 96.0483 221.526 96.1158 221.664 96.2507C221.803 96.3821 221.872 96.5419 221.872 96.7301C221.872 96.9184 221.803 97.0799 221.664 97.2149C221.526 97.3463 221.359 97.412 221.163 97.412ZM231.277 107.149C230.606 107.149 230.02 107.02 229.52 106.76C229.019 106.498 228.63 106.141 228.353 105.69C228.076 105.239 227.938 104.729 227.938 104.161C227.938 103.749 228.021 103.378 228.188 103.048C228.358 102.714 228.603 102.398 228.923 102.099C229.243 101.798 229.63 101.485 230.084 101.162L231.666 99.9848C232.043 99.7149 232.329 99.4503 232.524 99.1911C232.723 98.9283 232.822 98.6069 232.822 98.2269C232.822 97.8612 232.684 97.5345 232.407 97.2468C232.133 96.9556 231.778 96.81 231.341 96.81C231.036 96.81 230.763 96.8864 230.521 97.0391C230.283 97.1918 230.093 97.3907 229.951 97.6357C229.813 97.8772 229.743 98.1311 229.743 98.3974C229.743 98.646 229.807 98.8963 229.935 99.1485C230.063 99.397 230.235 99.6598 230.452 99.9368C230.668 100.21 230.91 100.512 231.176 100.842L236.162 107H235.012L230.665 101.668C230.299 101.221 229.974 100.821 229.69 100.469C229.406 100.114 229.182 99.7735 229.019 99.4468C228.856 99.1165 228.774 98.7632 228.774 98.3867C228.774 97.9216 228.882 97.5078 229.099 97.1456C229.315 96.7799 229.614 96.4922 229.994 96.2827C230.377 96.0732 230.816 95.9684 231.309 95.9684C231.814 95.9684 232.251 96.0714 232.62 96.2774C232.993 96.4833 233.28 96.7568 233.483 97.0977C233.689 97.4386 233.792 97.815 233.792 98.2269C233.792 98.7206 233.664 99.1573 233.408 99.5373C233.156 99.9173 232.789 100.29 232.306 100.656L230.324 102.137C229.781 102.545 229.408 102.923 229.205 103.271C229.003 103.619 228.902 103.916 228.902 104.161C228.902 104.544 229.001 104.898 229.2 105.221C229.399 105.544 229.674 105.803 230.026 105.999C230.381 106.194 230.787 106.293 231.246 106.297C231.7 106.293 232.128 106.203 232.529 106.025C232.931 105.844 233.289 105.587 233.605 105.253C233.925 104.919 234.181 104.52 234.372 104.054C234.568 103.589 234.681 103.071 234.713 102.499L235.635 102.51C235.621 103.096 235.541 103.593 235.395 104.001C235.253 104.406 235.09 104.74 234.905 105.003C234.72 105.265 234.559 105.477 234.42 105.636C234.381 105.69 234.342 105.743 234.303 105.796C234.264 105.849 234.223 105.903 234.181 105.956C233.825 106.347 233.383 106.643 232.854 106.846C232.329 107.048 231.803 107.149 231.277 107.149ZM245.287 107H242.091V96.0909H245.478C246.519 96.0909 247.409 96.3076 248.147 96.7408C248.889 97.174 249.458 97.7955 249.852 98.6051C250.246 99.4148 250.443 100.386 250.443 101.519C250.443 102.662 250.241 103.644 249.836 104.465C249.434 105.281 248.849 105.908 248.078 106.345C247.311 106.782 246.38 107 245.287 107ZM243.087 106.105H245.228C246.166 106.105 246.95 105.92 247.583 105.551C248.215 105.182 248.689 104.655 249.005 103.969C249.321 103.284 249.479 102.467 249.479 101.519C249.475 100.578 249.319 99.7681 249.01 99.0899C248.705 98.4116 248.25 97.8914 247.646 97.5291C247.046 97.1669 246.304 96.9858 245.42 96.9858H243.087V106.105ZM254.945 107.186C254.452 107.186 254.001 107.091 253.592 106.899C253.184 106.704 252.859 106.423 252.618 106.057C252.376 105.688 252.255 105.24 252.255 104.715C252.255 104.31 252.332 103.969 252.484 103.692C252.637 103.415 252.854 103.188 253.134 103.01C253.415 102.833 253.747 102.693 254.13 102.59C254.514 102.487 254.937 102.407 255.398 102.35C255.856 102.293 256.243 102.243 256.559 102.201C256.879 102.158 257.122 102.091 257.289 101.998C257.456 101.906 257.539 101.757 257.539 101.551V101.359C257.539 100.802 257.373 100.363 257.039 100.043C256.709 99.7202 256.233 99.5586 255.611 99.5586C255.022 99.5586 254.541 99.6882 254.168 99.9475C253.798 100.207 253.539 100.512 253.39 100.864L252.49 100.539C252.674 100.091 252.93 99.7344 253.257 99.4681C253.584 99.1982 253.949 99.0046 254.354 98.8875C254.759 98.7667 255.169 98.7064 255.585 98.7064C255.897 98.7064 256.222 98.7472 256.559 98.8289C256.9 98.9105 257.216 99.0526 257.508 99.255C257.799 99.4539 258.035 99.7326 258.216 100.091C258.397 100.446 258.488 100.897 258.488 101.444V107H257.539V105.706H257.481C257.367 105.947 257.199 106.181 256.975 106.409C256.751 106.636 256.471 106.822 256.133 106.968C255.796 107.114 255.4 107.186 254.945 107.186ZM255.073 106.318C255.577 106.318 256.014 106.206 256.384 105.983C256.753 105.759 257.037 105.462 257.236 105.093C257.438 104.72 257.539 104.31 257.539 103.863V102.68C257.468 102.748 257.349 102.808 257.183 102.861C257.019 102.914 256.829 102.962 256.613 103.005C256.4 103.044 256.187 103.078 255.973 103.106C255.76 103.135 255.569 103.159 255.398 103.181C254.937 103.238 254.542 103.326 254.216 103.447C253.889 103.568 253.639 103.735 253.465 103.948C253.291 104.157 253.204 104.427 253.204 104.757C253.204 105.255 253.381 105.64 253.736 105.913C254.091 106.183 254.537 106.318 255.073 106.318ZM264.232 98.8182V99.6439H260.328V98.8182H264.232ZM261.548 96.858H262.501V104.864C262.501 105.205 262.56 105.473 262.677 105.668C262.794 105.86 262.947 105.997 263.135 106.079C263.323 106.157 263.524 106.196 263.737 106.196C263.861 106.196 263.968 106.189 264.057 106.174C264.145 106.157 264.224 106.139 264.291 106.121L264.493 106.979C264.401 107.014 264.288 107.046 264.153 107.075C264.018 107.107 263.851 107.123 263.652 107.123C263.304 107.123 262.968 107.046 262.645 106.893C262.326 106.741 262.063 106.514 261.857 106.212C261.651 105.91 261.548 105.535 261.548 105.088V96.858ZM268.671 107.186C268.177 107.186 267.726 107.091 267.318 106.899C266.91 106.704 266.585 106.423 266.343 106.057C266.102 105.688 265.981 105.24 265.981 104.715C265.981 104.31 266.057 103.969 266.21 103.692C266.363 103.415 266.579 103.188 266.86 103.01C267.14 102.833 267.472 102.693 267.856 102.59C268.24 102.487 268.662 102.407 269.124 102.35C269.582 102.293 269.969 102.243 270.285 102.201C270.605 102.158 270.848 102.091 271.015 101.998C271.182 101.906 271.265 101.757 271.265 101.551V101.359C271.265 100.802 271.098 100.363 270.764 100.043C270.434 99.7202 269.958 99.5586 269.337 99.5586C268.747 99.5586 268.266 99.6882 267.893 99.9475C267.524 100.207 267.265 100.512 267.116 100.864L266.215 100.539C266.4 100.091 266.656 99.7344 266.982 99.4681C267.309 99.1982 267.675 99.0046 268.08 98.8875C268.485 98.7667 268.895 98.7064 269.31 98.7064C269.623 98.7064 269.948 98.7472 270.285 98.8289C270.626 98.9105 270.942 99.0526 271.233 99.255C271.524 99.4539 271.76 99.7326 271.942 100.091C272.123 100.446 272.213 100.897 272.213 101.444V107H271.265V105.706H271.206C271.093 105.947 270.924 106.181 270.7 106.409C270.477 106.636 270.196 106.822 269.859 106.968C269.521 107.114 269.126 107.186 268.671 107.186ZM268.799 106.318C269.303 106.318 269.74 106.206 270.109 105.983C270.478 105.759 270.763 105.462 270.961 105.093C271.164 104.72 271.265 104.31 271.265 103.863V102.68C271.194 102.748 271.075 102.808 270.908 102.861C270.745 102.914 270.555 102.962 270.338 103.005C270.125 103.044 269.912 103.078 269.699 103.106C269.486 103.135 269.294 103.159 269.124 103.181C268.662 103.238 268.268 103.326 267.941 103.447C267.615 103.568 267.364 103.735 267.19 103.948C267.016 104.157 266.929 104.427 266.929 104.757C266.929 105.255 267.107 105.64 267.462 105.913C267.817 106.183 268.263 106.318 268.799 106.318ZM285.075 98.8182C285.014 98.211 284.746 97.728 284.27 97.3693C283.794 97.0107 283.196 96.8314 282.475 96.8314C281.967 96.8314 281.52 96.9184 281.133 97.0924C280.749 97.2664 280.447 97.5078 280.227 97.8168C280.011 98.1222 279.902 98.4702 279.902 98.8608C279.902 99.1485 279.964 99.4006 280.089 99.6172C280.213 99.8338 280.38 100.02 280.589 100.177C280.803 100.329 281.037 100.461 281.293 100.571C281.552 100.681 281.813 100.773 282.076 100.848L283.226 101.178C283.574 101.274 283.922 101.396 284.27 101.545C284.618 101.695 284.936 101.883 285.224 102.11C285.515 102.334 285.747 102.609 285.921 102.936C286.099 103.259 286.188 103.648 286.188 104.102C286.188 104.685 286.037 105.208 285.735 105.674C285.433 106.139 285 106.508 284.435 106.782C283.871 107.052 283.194 107.186 282.406 107.186C281.664 107.186 281.019 107.064 280.472 106.819C279.925 106.57 279.496 106.228 279.183 105.791C278.871 105.354 278.695 104.848 278.656 104.273H279.679C279.714 104.702 279.856 105.066 280.105 105.365C280.353 105.663 280.676 105.89 281.074 106.047C281.472 106.199 281.916 106.276 282.406 106.276C282.949 106.276 283.432 106.185 283.855 106.004C284.281 105.819 284.615 105.564 284.856 105.237C285.101 104.907 285.224 104.523 285.224 104.086C285.224 103.717 285.128 103.408 284.936 103.159C284.744 102.907 284.476 102.696 284.132 102.526C283.791 102.355 283.395 102.204 282.944 102.073L281.639 101.689C280.783 101.434 280.119 101.08 279.647 100.629C279.174 100.178 278.938 99.603 278.938 98.9034C278.938 98.3175 279.094 97.8026 279.407 97.3587C279.723 96.9113 280.149 96.5632 280.685 96.3147C281.225 96.0625 281.831 95.9365 282.502 95.9365C283.18 95.9365 283.78 96.0608 284.302 96.3093C284.824 96.5579 285.238 96.9006 285.543 97.3374C285.852 97.7706 286.017 98.2642 286.039 98.8182H285.075ZM291.584 107.17C290.852 107.17 290.215 106.988 289.671 106.622C289.132 106.256 288.713 105.755 288.414 105.12C288.116 104.484 287.967 103.76 287.967 102.946C287.967 102.126 288.118 101.396 288.42 100.757C288.725 100.118 289.148 99.6172 289.687 99.255C290.227 98.8892 290.854 98.7064 291.568 98.7064C292.115 98.7064 292.61 98.8129 293.054 99.026C293.498 99.2355 293.864 99.532 294.151 99.9155C294.442 100.295 294.625 100.739 294.7 101.247H293.741C293.642 100.786 293.402 100.391 293.022 100.065C292.646 99.7344 292.166 99.5693 291.584 99.5693C291.062 99.5693 290.6 99.7113 290.199 99.9954C289.798 100.276 289.483 100.668 289.256 101.173C289.032 101.673 288.92 102.254 288.92 102.914C288.92 103.579 289.031 104.166 289.251 104.678C289.471 105.185 289.78 105.583 290.178 105.871C290.579 106.158 291.048 106.302 291.584 106.302C291.946 106.302 292.276 106.235 292.575 106.1C292.876 105.961 293.129 105.766 293.331 105.514C293.537 105.262 293.675 104.962 293.746 104.614H294.705C294.634 105.107 294.458 105.548 294.178 105.935C293.901 106.318 293.54 106.62 293.097 106.84C292.656 107.06 292.152 107.17 291.584 107.17ZM296.748 107V98.8182H297.702V107H296.748ZM297.233 97.412C297.037 97.412 296.871 97.3463 296.732 97.2149C296.594 97.0799 296.524 96.9184 296.524 96.7301C296.524 96.5419 296.594 96.3821 296.732 96.2507C296.871 96.1158 297.037 96.0483 297.233 96.0483C297.428 96.0483 297.595 96.1158 297.733 96.2507C297.872 96.3821 297.941 96.5419 297.941 96.7301C297.941 96.9184 297.872 97.0799 297.733 97.2149C297.595 97.3463 297.428 97.412 297.233 97.412ZM303.517 107.17C302.753 107.17 302.093 106.993 301.535 106.638C300.978 106.279 300.546 105.784 300.241 105.152C299.939 104.516 299.788 103.784 299.788 102.957C299.788 102.133 299.939 101.402 300.241 100.762C300.546 100.12 300.967 99.6172 301.503 99.255C302.043 98.8892 302.666 98.7064 303.373 98.7064C303.817 98.7064 304.245 98.788 304.657 98.9514C305.069 99.1112 305.438 99.358 305.765 99.6918C306.095 100.022 306.356 100.439 306.548 100.944C306.74 101.444 306.835 102.037 306.835 102.723V103.191H300.443V102.355H305.866C305.866 101.83 305.759 101.357 305.546 100.938C305.337 100.516 305.044 100.182 304.668 99.9368C304.295 99.6918 303.863 99.5693 303.373 99.5693C302.855 99.5693 302.398 99.7078 302.004 99.9848C301.61 100.262 301.301 100.628 301.077 101.082C300.857 101.537 300.745 102.034 300.742 102.574V103.074C300.742 103.724 300.854 104.292 301.077 104.779C301.305 105.262 301.626 105.636 302.041 105.903C302.457 106.169 302.949 106.302 303.517 106.302C303.904 106.302 304.243 106.242 304.534 106.121C304.829 106 305.076 105.839 305.275 105.636C305.477 105.43 305.63 105.205 305.733 104.96L306.633 105.253C306.509 105.597 306.305 105.915 306.02 106.206C305.74 106.498 305.388 106.732 304.966 106.909C304.547 107.083 304.064 107.17 303.517 107.17ZM309.873 101.886V107H308.925V98.8182H309.846V100.102H309.932C310.123 99.6829 310.422 99.3473 310.827 99.0952C311.235 98.8395 311.739 98.7117 312.339 98.7117C312.89 98.7117 313.373 98.8271 313.788 99.0579C314.207 99.2852 314.532 99.6208 314.763 100.065C314.997 100.509 315.115 101.054 315.115 101.7V107H314.166V101.759C314.166 101.087 313.978 100.556 313.602 100.166C313.229 99.7752 312.728 99.5799 312.1 99.5799C311.67 99.5799 311.288 99.6723 310.954 99.8569C310.621 100.042 310.356 100.308 310.161 100.656C309.969 101 309.873 101.411 309.873 101.886ZM320.807 107.17C320.076 107.17 319.438 106.988 318.895 106.622C318.355 106.256 317.936 105.755 317.638 105.12C317.34 104.484 317.191 103.76 317.191 102.946C317.191 102.126 317.342 101.396 317.643 100.757C317.949 100.118 318.371 99.6172 318.911 99.255C319.451 98.8892 320.078 98.7064 320.791 98.7064C321.338 98.7064 321.834 98.8129 322.278 99.026C322.721 99.2355 323.087 99.532 323.375 99.9155C323.666 100.295 323.849 100.739 323.924 101.247H322.965C322.865 100.786 322.626 100.391 322.246 100.065C321.869 99.7344 321.39 99.5693 320.807 99.5693C320.285 99.5693 319.824 99.7113 319.422 99.9954C319.021 100.276 318.707 100.668 318.48 101.173C318.256 101.673 318.144 102.254 318.144 102.914C318.144 103.579 318.254 104.166 318.474 104.678C318.694 105.185 319.003 105.583 319.401 105.871C319.802 106.158 320.271 106.302 320.807 106.302C321.17 106.302 321.5 106.235 321.798 106.1C322.1 105.961 322.352 105.766 322.555 105.514C322.761 105.262 322.899 104.962 322.97 104.614H323.929C323.858 105.107 323.682 105.548 323.402 105.935C323.125 106.318 322.764 106.62 322.32 106.84C321.88 107.06 321.376 107.17 320.807 107.17ZM329.269 107.17C328.505 107.17 327.845 106.993 327.287 106.638C326.73 106.279 326.298 105.784 325.993 105.152C325.691 104.516 325.54 103.784 325.54 102.957C325.54 102.133 325.691 101.402 325.993 100.762C326.298 100.12 326.719 99.6172 327.255 99.255C327.795 98.8892 328.418 98.7064 329.125 98.7064C329.569 98.7064 329.997 98.788 330.409 98.9514C330.821 99.1112 331.19 99.358 331.517 99.6918C331.847 100.022 332.108 100.439 332.3 100.944C332.492 101.444 332.587 102.037 332.587 102.723V103.191H326.195V102.355H331.618C331.618 101.83 331.511 101.357 331.298 100.938C331.089 100.516 330.796 100.182 330.419 99.9368C330.047 99.6918 329.615 99.5693 329.125 99.5693C328.607 99.5693 328.15 99.7078 327.756 99.9848C327.362 100.262 327.053 100.628 326.829 101.082C326.609 101.537 326.497 102.034 326.494 102.574V103.074C326.494 103.724 326.606 104.292 326.829 104.779C327.057 105.262 327.378 105.636 327.793 105.903C328.209 106.169 328.701 106.302 329.269 106.302C329.656 106.302 329.995 106.242 330.286 106.121C330.581 106 330.828 105.839 331.027 105.636C331.229 105.43 331.382 105.205 331.485 104.96L332.385 105.253C332.261 105.597 332.057 105.915 331.772 106.206C331.492 106.498 331.14 106.732 330.718 106.909C330.299 107.083 329.816 107.17 329.269 107.17ZM340.089 96.0909V107H339.093V96.0909H340.089ZM343.74 101.886V107H342.792V98.8182H343.714V100.102H343.799C343.991 99.6829 344.289 99.3473 344.694 99.0952C345.102 98.8395 345.606 98.7117 346.206 98.7117C346.757 98.7117 347.24 98.8271 347.655 99.0579C348.074 99.2852 348.399 99.6208 348.63 100.065C348.865 100.509 348.982 101.054 348.982 101.7V107H348.034V101.759C348.034 101.087 347.845 100.556 347.469 100.166C347.096 99.7752 346.595 99.5799 345.967 99.5799C345.537 99.5799 345.155 99.6723 344.822 99.8569C344.488 100.042 344.223 100.308 344.028 100.656C343.836 101 343.74 101.411 343.74 101.886ZM352.427 101.886V107H351.479V98.8182H352.4V100.102H352.485C352.677 99.6829 352.975 99.3473 353.38 99.0952C353.789 98.8395 354.293 98.7117 354.893 98.7117C355.443 98.7117 355.926 98.8271 356.342 99.0579C356.761 99.2852 357.086 99.6208 357.317 100.065C357.551 100.509 357.668 101.054 357.668 101.7V107H356.72V101.759C356.72 101.087 356.532 100.556 356.155 100.166C355.783 99.7752 355.282 99.5799 354.653 99.5799C354.224 99.5799 353.842 99.6723 353.508 99.8569C353.174 100.042 352.91 100.308 352.714 100.656C352.523 101 352.427 101.411 352.427 101.886ZM363.345 107.17C362.638 107.17 362.013 106.991 361.47 106.632C360.93 106.274 360.508 105.778 360.202 105.146C359.897 104.511 359.744 103.777 359.744 102.946C359.744 102.108 359.897 101.371 360.202 100.736C360.508 100.097 360.93 99.5995 361.47 99.2443C362.013 98.8857 362.638 98.7064 363.345 98.7064C364.052 98.7064 364.675 98.8857 365.215 99.2443C365.755 99.603 366.177 100.1 366.483 100.736C366.792 101.371 366.946 102.108 366.946 102.946C366.946 103.777 366.793 104.511 366.488 105.146C366.183 105.778 365.758 106.274 365.215 106.632C364.675 106.991 364.052 107.17 363.345 107.17ZM363.345 106.302C363.913 106.302 364.395 106.15 364.789 105.844C365.183 105.539 365.481 105.132 365.684 104.624C365.89 104.117 365.993 103.557 365.993 102.946C365.993 102.336 365.89 101.775 365.684 101.263C365.481 100.752 365.183 100.342 364.789 100.033C364.395 99.7238 363.913 99.5693 363.345 99.5693C362.781 99.5693 362.299 99.7238 361.902 100.033C361.507 100.342 361.207 100.752 361.001 101.263C360.799 101.775 360.698 102.336 360.698 102.946C360.698 103.557 360.799 104.117 361.001 104.624C361.207 105.132 361.507 105.539 361.902 105.844C362.296 106.15 362.777 106.302 363.345 106.302ZM375.068 98.8182L372.08 107H371.068L368.079 98.8182H369.107L371.536 105.748H371.611L374.04 98.8182H375.068ZM378.959 107.186C378.465 107.186 378.014 107.091 377.606 106.899C377.198 106.704 376.873 106.423 376.631 106.057C376.39 105.688 376.269 105.24 376.269 104.715C376.269 104.31 376.345 103.969 376.498 103.692C376.651 103.415 376.867 103.188 377.148 103.01C377.429 102.833 377.761 102.693 378.144 102.59C378.528 102.487 378.95 102.407 379.412 102.35C379.87 102.293 380.257 102.243 380.573 102.201C380.893 102.158 381.136 102.091 381.303 101.998C381.47 101.906 381.553 101.757 381.553 101.551V101.359C381.553 100.802 381.386 100.363 381.052 100.043C380.722 99.7202 380.246 99.5586 379.625 99.5586C379.035 99.5586 378.554 99.6882 378.181 99.9475C377.812 100.207 377.553 100.512 377.404 100.864L376.503 100.539C376.688 100.091 376.944 99.7344 377.27 99.4681C377.597 99.1982 377.963 99.0046 378.368 98.8875C378.773 98.7667 379.183 98.7064 379.598 98.7064C379.911 98.7064 380.236 98.7472 380.573 98.8289C380.914 98.9105 381.23 99.0526 381.521 99.255C381.812 99.4539 382.049 99.7326 382.23 100.091C382.411 100.446 382.501 100.897 382.501 101.444V107H381.553V105.706H381.495C381.381 105.947 381.212 106.181 380.989 106.409C380.765 106.636 380.484 106.822 380.147 106.968C379.81 107.114 379.414 107.186 378.959 107.186ZM379.087 106.318C379.591 106.318 380.028 106.206 380.397 105.983C380.767 105.759 381.051 105.462 381.25 105.093C381.452 104.72 381.553 104.31 381.553 103.863V102.68C381.482 102.748 381.363 102.808 381.196 102.861C381.033 102.914 380.843 102.962 380.626 103.005C380.413 103.044 380.2 103.078 379.987 103.106C379.774 103.135 379.582 103.159 379.412 103.181C378.95 103.238 378.556 103.326 378.229 103.447C377.903 103.568 377.652 103.735 377.478 103.948C377.304 104.157 377.217 104.427 377.217 104.757C377.217 105.255 377.395 105.64 377.75 105.913C378.105 106.183 378.551 106.318 379.087 106.318ZM388.246 98.8182V99.6439H384.342V98.8182H388.246ZM385.562 96.858H386.515V104.864C386.515 105.205 386.574 105.473 386.691 105.668C386.808 105.86 386.961 105.997 387.149 106.079C387.337 106.157 387.538 106.196 387.751 106.196C387.875 106.196 387.982 106.189 388.07 106.174C388.159 106.157 388.237 106.139 388.305 106.121L388.507 106.979C388.415 107.014 388.301 107.046 388.166 107.075C388.031 107.107 387.864 107.123 387.666 107.123C387.318 107.123 386.982 107.046 386.659 106.893C386.339 106.741 386.076 106.514 385.87 106.212C385.664 105.91 385.562 105.535 385.562 105.088V96.858ZM390.41 107V98.8182H391.364V107H390.41ZM390.895 97.412C390.7 97.412 390.533 97.3463 390.394 97.2149C390.256 97.0799 390.186 96.9184 390.186 96.7301C390.186 96.5419 390.256 96.3821 390.394 96.2507C390.533 96.1158 390.7 96.0483 390.895 96.0483C391.09 96.0483 391.257 96.1158 391.396 96.2507C391.534 96.3821 391.603 96.5419 391.603 96.7301C391.603 96.9184 391.534 97.0799 391.396 97.2149C391.257 97.3463 391.09 97.412 390.895 97.412ZM397.051 107.17C396.345 107.17 395.72 106.991 395.176 106.632C394.636 106.274 394.214 105.778 393.908 105.146C393.603 104.511 393.45 103.777 393.45 102.946C393.45 102.108 393.603 101.371 393.908 100.736C394.214 100.097 394.636 99.5995 395.176 99.2443C395.72 98.8857 396.345 98.7064 397.051 98.7064C397.758 98.7064 398.381 98.8857 398.921 99.2443C399.461 99.603 399.883 100.1 400.189 100.736C400.498 101.371 400.652 102.108 400.652 102.946C400.652 103.777 400.499 104.511 400.194 105.146C399.889 105.778 399.464 106.274 398.921 106.632C398.381 106.991 397.758 107.17 397.051 107.17ZM397.051 106.302C397.619 106.302 398.101 106.15 398.495 105.844C398.889 105.539 399.187 105.132 399.39 104.624C399.596 104.117 399.699 103.557 399.699 102.946C399.699 102.336 399.596 101.775 399.39 101.263C399.187 100.752 398.889 100.342 398.495 100.033C398.101 99.7238 397.619 99.5693 397.051 99.5693C396.487 99.5693 396.005 99.7238 395.608 100.033C395.213 100.342 394.913 100.752 394.707 101.263C394.505 101.775 394.404 102.336 394.404 102.946C394.404 103.557 394.505 104.117 394.707 104.624C394.913 105.132 395.213 105.539 395.608 105.844C396.002 106.15 396.483 106.302 397.051 106.302ZM403.682 101.886V107H402.733V98.8182H403.655V100.102H403.74C403.932 99.6829 404.23 99.3473 404.635 99.0952C405.043 98.8395 405.548 98.7117 406.148 98.7117C406.698 98.7117 407.181 98.8271 407.597 99.0579C408.016 99.2852 408.341 99.6208 408.572 100.065C408.806 100.509 408.923 101.054 408.923 101.7V107H407.975V101.759C407.975 101.087 407.787 100.556 407.41 100.166C407.037 99.7752 406.537 99.5799 405.908 99.5799C405.478 99.5799 405.097 99.6723 404.763 99.8569C404.429 100.042 404.165 100.308 403.969 100.656C403.777 101 403.682 101.411 403.682 101.886Z" fill="#033A5E" fill-opacity="0.8"/>
<defs>
<filter id="filter0_dd_766_11433" x="0.378796" y="0.674657" width="125.242" height="125.242" filterUnits="userSpaceOnUse" color-interpolation-filters="sRGB">
<feFlood flood-opacity="0" result="BackgroundImageFix"/>
<feColorMatrix in="SourceAlpha" type="matrix" values="0 0 0 0 0 0 0 0 0 0 0 0 0 0 0 0 0 0 127 0" result="hardAlpha"/>
<feOffset dy="3.29585"/>
<feGaussianBlur stdDeviation="3.29585"/>
<feColorMatrix type="matrix" values="0 0 0 0 0.0627451 0 0 0 0 0.0941176 0 0 0 0 0.156863 0 0 0 0.06 0"/>
<feBlend mode="normal" in2="BackgroundImageFix" result="effect1_dropShadow_766_11433"/>
<feColorMatrix in="SourceAlpha" type="matrix" values="0 0 0 0 0 0 0 0 0 0 0 0 0 0 0 0 0 0 127 0" result="hardAlpha"/>
<feOffset dy="3.29585"/>
<feGaussianBlur stdDeviation="4.94378"/>
<feColorMatrix type="matrix" values="0 0 0 0 0.0627451 0 0 0 0 0.0941176 0 0 0 0 0.156863 0 0 0 0.1 0"/>
<feBlend mode="normal" in2="effect1_dropShadow_766_11433" result="effect2_dropShadow_766_11433"/>
<feBlend mode="normal" in="SourceGraphic" in2="effect2_dropShadow_766_11433" result="shape"/>
</filter>
<filter id="filter1_dd_766_11433" x="15.793" y="35.3761" width="50.4352" height="72.9895" filterUnits="userSpaceOnUse" color-interpolation-filters="sRGB">
<feFlood flood-opacity="0" result="BackgroundImageFix"/>
<feColorMatrix in="SourceAlpha" type="matrix" values="0 0 0 0 0 0 0 0 0 0 0 0 0 0 0 0 0 0 127 0" result="hardAlpha"/>
<feOffset dy="3.73507"/>
<feGaussianBlur stdDeviation="3.73507"/>
<feColorMatrix type="matrix" values="0 0 0 0 0.0627451 0 0 0 0 0.0941176 0 0 0 0 0.156863 0 0 0 0.06 0"/>
<feBlend mode="normal" in2="BackgroundImageFix" result="effect1_dropShadow_766_11433"/>
<feColorMatrix in="SourceAlpha" type="matrix" values="0 0 0 0 0 0 0 0 0 0 0 0 0 0 0 0 0 0 127 0" result="hardAlpha"/>
<feOffset dy="3.73507"/>
<feGaussianBlur stdDeviation="5.6026"/>
<feColorMatrix type="matrix" values="0 0 0 0 0.0627451 0 0 0 0 0.0941176 0 0 0 0 0.156863 0 0 0 0.1 0"/>
<feBlend mode="normal" in2="effect1_dropShadow_766_11433" result="effect2_dropShadow_766_11433"/>
<feBlend mode="normal" in="SourceGraphic" in2="effect2_dropShadow_766_11433" result="shape"/>
</filter>
<filter id="filter2_dd_766_11433" x="33.5038" y="31.0154" width="59.21" height="65.5061" filterUnits="userSpaceOnUse" color-interpolation-filters="sRGB">
<feFlood flood-opacity="0" result="BackgroundImageFix"/>
<feColorMatrix in="SourceAlpha" type="matrix" values="0 0 0 0 0 0 0 0 0 0 0 0 0 0 0 0 0 0 127 0" result="hardAlpha"/>
<feOffset dy="3.73507"/>
<feGaussianBlur stdDeviation="3.73507"/>
<feColorMatrix type="matrix" values="0 0 0 0 0.0627451 0 0 0 0 0.0941176 0 0 0 0 0.156863 0 0 0 0.06 0"/>
<feBlend mode="normal" in2="BackgroundImageFix" result="effect1_dropShadow_766_11433"/>
<feColorMatrix in="SourceAlpha" type="matrix" values="0 0 0 0 0 0 0 0 0 0 0 0 0 0 0 0 0 0 127 0" result="hardAlpha"/>
<feOffset dy="3.73507"/>
<feGaussianBlur stdDeviation="5.6026"/>
<feColorMatrix type="matrix" values="0 0 0 0 0.0627451 0 0 0 0 0.0941176 0 0 0 0 0.156863 0 0 0 0.1 0"/>
<feBlend mode="normal" in2="effect1_dropShadow_766_11433" result="effect2_dropShadow_766_11433"/>
<feBlend mode="normal" in="SourceGraphic" in2="effect2_dropShadow_766_11433" result="shape"/>
</filter>
<filter id="filter3_dd_766_11433" x="59.4078" y="24.193" width="50.4352" height="72.9895" filterUnits="userSpaceOnUse" color-interpolation-filters="sRGB">
<feFlood flood-opacity="0" result="BackgroundImageFix"/>
<feColorMatrix in="SourceAlpha" type="matrix" values="0 0 0 0 0 0 0 0 0 0 0 0 0 0 0 0 0 0 127 0" result="hardAlpha"/>
<feOffset dy="3.73507"/>
<feGaussianBlur stdDeviation="3.73507"/>
<feColorMatrix type="matrix" values="0 0 0 0 0.0627451 0 0 0 0 0.0941176 0 0 0 0 0.156863 0 0 0 0.06 0"/>
<feBlend mode="normal" in2="BackgroundImageFix" result="effect1_dropShadow_766_11433"/>
<feColorMatrix in="SourceAlpha" type="matrix" values="0 0 0 0 0 0 0 0 0 0 0 0 0 0 0 0 0 0 127 0" result="hardAlpha"/>
<feOffset dy="3.73507"/>
<feGaussianBlur stdDeviation="5.6026"/>
<feColorMatrix type="matrix" values="0 0 0 0 0.0627451 0 0 0 0 0.0941176 0 0 0 0 0.156863 0 0 0 0.1 0"/>
<feBlend mode="normal" in2="effect1_dropShadow_766_11433" result="effect2_dropShadow_766_11433"/>
<feBlend mode="normal" in="SourceGraphic" in2="effect2_dropShadow_766_11433" result="shape"/>
</filter>
<filter id="filter4_dd_766_11433" x="72.8445" y="19.1045" width="37.3547" height="37.3547" filterUnits="userSpaceOnUse" color-interpolation-filters="sRGB">
<feFlood flood-opacity="0" result="BackgroundImageFix"/>
<feColorMatrix in="SourceAlpha" type="matrix" values="0 0 0 0 0 0 0 0 0 0 0 0 0 0 0 0 0 0 127 0" result="hardAlpha"/>
<feOffset dy="3.73507"/>
<feGaussianBlur stdDeviation="3.73507"/>
<feColorMatrix type="matrix" values="0 0 0 0 0.0627451 0 0 0 0 0.0941176 0 0 0 0 0.156863 0 0 0 0.06 0"/>
<feBlend mode="normal" in2="BackgroundImageFix" result="effect1_dropShadow_766_11433"/>
<feColorMatrix in="SourceAlpha" type="matrix" values="0 0 0 0 0 0 0 0 0 0 0 0 0 0 0 0 0 0 127 0" result="hardAlpha"/>
<feOffset dy="3.73507"/>
<feGaussianBlur stdDeviation="5.6026"/>
<feColorMatrix type="matrix" values="0 0 0 0 0.0627451 0 0 0 0 0.0941176 0 0 0 0 0.156863 0 0 0 0.1 0"/>
<feBlend mode="normal" in2="effect1_dropShadow_766_11433" result="effect2_dropShadow_766_11433"/>
<feBlend mode="normal" in="SourceGraphic" in2="effect2_dropShadow_766_11433" result="shape"/>
</filter>
<filter id="filter5_dd_766_11433" x="63.8879" y="64.3097" width="28.3933" height="28.3933" filterUnits="userSpaceOnUse" color-interpolation-filters="sRGB">
<feFlood flood-opacity="0" result="BackgroundImageFix"/>
<feColorMatrix in="SourceAlpha" type="matrix" values="0 0 0 0 0 0 0 0 0 0 0 0 0 0 0 0 0 0 127 0" result="hardAlpha"/>
<feOffset dy="3.73507"/>
<feGaussianBlur stdDeviation="3.73507"/>
<feColorMatrix type="matrix" values="0 0 0 0 0.0627451 0 0 0 0 0.0941176 0 0 0 0 0.156863 0 0 0 0.06 0"/>
<feBlend mode="normal" in2="BackgroundImageFix" result="effect1_dropShadow_766_11433"/>
<feColorMatrix in="SourceAlpha" type="matrix" values="0 0 0 0 0 0 0 0 0 0 0 0 0 0 0 0 0 0 127 0" result="hardAlpha"/>
<feOffset dy="3.73507"/>
<feGaussianBlur stdDeviation="5.6026"/>
<feColorMatrix type="matrix" values="0 0 0 0 0.0627451 0 0 0 0 0.0941176 0 0 0 0 0.156863 0 0 0 0.1 0"/>
<feBlend mode="normal" in2="effect1_dropShadow_766_11433" result="effect2_dropShadow_766_11433"/>
<feBlend mode="normal" in="SourceGraphic" in2="effect2_dropShadow_766_11433" result="shape"/>
</filter>
<filter id="filter6_dd_766_11433" x="29.2622" y="30.3744" width="37.3507" height="37.3507" filterUnits="userSpaceOnUse" color-interpolation-filters="sRGB">
<feFlood flood-opacity="0" result="BackgroundImageFix"/>
<feColorMatrix in="SourceAlpha" type="matrix" values="0 0 0 0 0 0 0 0 0 0 0 0 0 0 0 0 0 0 127 0" result="hardAlpha"/>
<feOffset dy="3.73507"/>
<feGaussianBlur stdDeviation="3.73507"/>
<feColorMatrix type="matrix" values="0 0 0 0 0.0627451 0 0 0 0 0.0941176 0 0 0 0 0.156863 0 0 0 0.06 0"/>
<feBlend mode="normal" in2="BackgroundImageFix" result="effect1_dropShadow_766_11433"/>
<feColorMatrix in="SourceAlpha" type="matrix" values="0 0 0 0 0 0 0 0 0 0 0 0 0 0 0 0 0 0 127 0" result="hardAlpha"/>
<feOffset dy="3.73507"/>
<feGaussianBlur stdDeviation="5.6026"/>
<feColorMatrix type="matrix" values="0 0 0 0 0.0627451 0 0 0 0 0.0941176 0 0 0 0 0.156863 0 0 0 0.1 0"/>
<feBlend mode="normal" in2="effect1_dropShadow_766_11433" result="effect2_dropShadow_766_11433"/>
<feBlend mode="normal" in="SourceGraphic" in2="effect2_dropShadow_766_11433" result="shape"/>
</filter>
<filter id="filter7_dd_766_11433" x="33.741" y="34.8534" width="28.3933" height="28.3933" filterUnits="userSpaceOnUse" color-interpolation-filters="sRGB">
<feFlood flood-opacity="0" result="BackgroundImageFix"/>
<feColorMatrix in="SourceAlpha" type="matrix" values="0 0 0 0 0 0 0 0 0 0 0 0 0 0 0 0 0 0 127 0" result="hardAlpha"/>
<feOffset dy="3.73507"/>
<feGaussianBlur stdDeviation="3.73507"/>
<feColorMatrix type="matrix" values="0 0 0 0 0.0627451 0 0 0 0 0.0941176 0 0 0 0 0.156863 0 0 0 0.06 0"/>
<feBlend mode="normal" in2="BackgroundImageFix" result="effect1_dropShadow_766_11433"/>
<feColorMatrix in="SourceAlpha" type="matrix" values="0 0 0 0 0 0 0 0 0 0 0 0 0 0 0 0 0 0 127 0" result="hardAlpha"/>
<feOffset dy="3.73507"/>
<feGaussianBlur stdDeviation="5.6026"/>
<feColorMatrix type="matrix" values="0 0 0 0 0.0627451 0 0 0 0 0.0941176 0 0 0 0 0.156863 0 0 0 0.1 0"/>
<feBlend mode="normal" in2="effect1_dropShadow_766_11433" result="effect2_dropShadow_766_11433"/>
<feBlend mode="normal" in="SourceGraphic" in2="effect2_dropShadow_766_11433" result="shape"/>
</filter>
<linearGradient id="paint0_linear_766_11433" x1="63" y1="7.26637" x2="63" y2="112.734" gradientUnits="userSpaceOnUse">
<stop stop-color="white"/>
<stop offset="1" stop-color="#AAD7F4"/>
</linearGradient>
<linearGradient id="paint1_linear_766_11433" x1="98.0827" y1="46.051" x2="70.9922" y2="16.7491" gradientUnits="userSpaceOnUse">
<stop stop-color="#8ECEF9"/>
<stop offset="1" stop-color="#B3DBF5" stop-opacity="0"/>
</linearGradient>
<linearGradient id="paint2_linear_766_11433" x1="42.6746" y1="99.271" x2="14.525" y2="68.8234" gradientUnits="userSpaceOnUse">
<stop stop-color="#8ECEF9"/>
<stop offset="1" stop-color="#B3DBF5" stop-opacity="0"/>
</linearGradient>
<linearGradient id="paint3_linear_766_11433" x1="28.5814" y1="91.8757" x2="40.3587" y2="80.0306" gradientUnits="userSpaceOnUse">
<stop stop-color="#0D69FF"/>
<stop offset="1" stop-color="#009AFF"/>
</linearGradient>
<linearGradient id="paint4_linear_766_11433" x1="86.7448" y1="71.6677" x2="75.9854" y2="35.0698" gradientUnits="userSpaceOnUse">
<stop stop-color="#042F75"/>
<stop offset="1" stop-color="#009AFF"/>
</linearGradient>
<linearGradient id="paint5_linear_766_11433" x1="72.1963" y1="80.6926" x2="83.9736" y2="68.8476" gradientUnits="userSpaceOnUse">
<stop stop-color="#0D69FF"/>
<stop offset="1" stop-color="#009AFF"/>
</linearGradient>
<linearGradient id="paint6_linear_766_11433" x1="91.8859" y1="41.3319" x2="92.0024" y2="26.4976" gradientUnits="userSpaceOnUse">
<stop stop-color="#048DE9"/>
<stop offset="1" stop-color="#009AFF"/>
</linearGradient>
<linearGradient id="paint7_linear_766_11433" x1="75.4414" y1="73.9638" x2="81.5574" y2="75.6358" gradientUnits="userSpaceOnUse">
<stop stop-color="#073E96"/>
<stop offset="1" stop-color="#009AFF"/>
<stop offset="1" stop-color="#009AFF"/>
</linearGradient>
<linearGradient id="paint8_linear_766_11433" x1="41.3372" y1="43.2984" x2="51.4756" y2="44.0958" gradientUnits="userSpaceOnUse">
<stop stop-color="#0D69FF"/>
<stop offset="1" stop-color="#009AFF"/>
</linearGradient>
<linearGradient id="paint9_linear_766_11433" x1="45.2945" y1="44.5075" x2="51.4104" y2="46.1795" gradientUnits="userSpaceOnUse">
<stop stop-color="#073E96"/>
<stop offset="1" stop-color="#009AFF"/>
<stop offset="1" stop-color="#009AFF"/>
</linearGradient>
<linearGradient id="paint10_linear_766_11433" x1="63" y1="7.26637" x2="63" y2="112.734" gradientUnits="userSpaceOnUse">
<stop stop-color="#0499FB"/>
<stop offset="1" stop-color="#0499FB" stop-opacity="0"/>
</linearGradient>
<clipPath id="clip0_766_11433">
<rect x="10.2664" y="7.26637" width="105.467" height="105.467" rx="26.3668" fill="white"/>
</clipPath>
</defs>
</svg>
